<svg width="1369" height="372" viewBox="0 0 1369 372" fill="none" xmlns="http://www.w3.org/2000/svg">
<g filter="url(#filter0_d_27_286)">
<path d="M40 211.402C53.2548 211.402 64 200.942 64 188.038C64 175.134 53.2548 164.674 40 164.674C26.7452 164.674 16 175.134 16 188.038C16 200.942 26.7452 211.402 40 211.402Z" fill="black"/>
</g>
<path d="M40 211.402C53.2548 211.402 64 200.942 64 188.038C64 175.134 53.2548 164.674 40 164.674C26.7452 164.674 16 175.134 16 188.038C16 200.942 26.7452 211.402 40 211.402Z" fill="#0070F4"/>
<g filter="url(#filter1_d_27_286)">
<path d="M235 280.519C241.627 280.519 247 275.289 247 268.837C247 262.385 241.627 257.155 235 257.155C228.373 257.155 223 262.385 223 268.837C223 275.289 228.373 280.519 235 280.519Z" fill="black"/>
</g>
<path d="M235 280.519C241.627 280.519 247 275.289 247 268.837C247 262.385 241.627 257.155 235 257.155C228.373 257.155 223 262.385 223 268.837C223 275.289 228.373 280.519 235 280.519Z" fill="#0070F4"/>
<path d="M282 162.727C286.418 162.727 290 159.24 290 154.939C290 150.638 286.418 147.151 282 147.151C277.582 147.151 274 150.638 274 154.939C274 159.24 277.582 162.727 282 162.727Z" fill="#0070F4" fill-opacity="0.32"/>
<path d="M239 205.56C242.314 205.56 245 202.945 245 199.719C245 196.493 242.314 193.878 239 193.878C235.686 193.878 233 196.493 233 199.719C233 202.945 235.686 205.56 239 205.56Z" fill="#0070F4" fill-opacity="0.64"/>
<path d="M2 248.394C3.10457 248.394 4 247.522 4 246.447C4 245.372 3.10457 244.5 2 244.5C0.89543 244.5 0 245.372 0 246.447C0 247.522 0.89543 248.394 2 248.394Z" fill="#0070F4" fill-opacity="0.64"/>
<path d="M18 128.655C19.1046 128.655 20 127.783 20 126.708C20 125.633 19.1046 124.761 18 124.761C16.8954 124.761 16 125.633 16 126.708C16 127.783 16.8954 128.655 18 128.655Z" fill="#0070F4"/>
<g opacity="0.16" filter="url(#filter2_f_27_286)">
<path d="M247 268.836L334 239.632" stroke="#666666" stroke-width="2"/>
</g>
<path d="M125 116C191.667 120.543 229.667 148.45 239 199.72M247 263.969C358.333 223.732 388 188.687 336 158.833L247 263.969Z" stroke="url(#paint0_linear_27_286)" stroke-width="2" stroke-dasharray="2 2"/>
<g filter="url(#filter3_d_27_286)">
<path d="M1272.74 77.1574C1263.36 86.53 1263.16 101.525 1272.29 110.649C1281.41 119.773 1296.4 119.572 1305.78 110.199C1315.15 100.826 1315.35 85.8319 1306.23 76.7077C1297.1 67.5835 1282.11 67.7848 1272.74 77.1574Z" fill="black"/>
</g>
<path d="M1272.74 77.1574C1263.36 86.53 1263.16 101.525 1272.29 110.649C1281.41 119.773 1296.4 119.572 1305.78 110.199C1315.15 100.826 1315.35 85.8319 1306.23 76.7077C1297.1 67.5835 1282.11 67.7848 1272.74 77.1574Z" fill="#0070F4"/>
<g filter="url(#filter4_d_27_286)">
<path d="M1085.98 166.17C1081.29 170.856 1081.19 178.354 1085.75 182.916C1090.31 187.478 1097.81 187.377 1102.5 182.691C1107.18 178.005 1107.29 170.507 1102.72 165.945C1098.16 161.383 1090.66 161.484 1085.98 166.17Z" fill="black"/>
</g>
<path d="M1085.98 166.17C1081.29 170.856 1081.19 178.354 1085.75 182.916C1090.31 187.478 1097.81 187.377 1102.5 182.691C1107.18 178.005 1107.29 170.507 1102.72 165.945C1098.16 161.383 1090.66 161.484 1085.98 166.17Z" fill="#0070F4"/>
<path d="M1136.03 282.696C1132.91 285.82 1132.84 290.818 1135.88 293.859C1138.93 296.901 1143.92 296.834 1147.05 293.71C1150.17 290.585 1150.24 285.587 1147.2 282.546C1144.16 279.504 1139.16 279.571 1136.03 282.696Z" fill="#0070F4" fill-opacity="0.32"/>
<path d="M1136.15 222.002C1133.81 224.346 1133.76 228.094 1136.04 230.375C1138.32 232.656 1142.07 232.606 1144.41 230.263C1146.76 227.92 1146.81 224.171 1144.53 221.89C1142.24 219.609 1138.5 219.659 1136.15 222.002Z" fill="#0070F4" fill-opacity="0.64"/>
<path d="M1273.45 24.13C1272.67 24.911 1272.65 26.1606 1273.41 26.9209C1274.17 27.6813 1275.42 27.6645 1276.2 26.8835C1276.98 26.1024 1277 24.8528 1276.24 24.0925C1275.48 23.3321 1274.23 23.3489 1273.45 24.13Z" fill="#0070F4" fill-opacity="0.64"/>
<path d="M1346.8 120.112C1346.02 120.893 1346.01 122.143 1346.77 122.903C1347.53 123.663 1348.78 123.646 1349.56 122.865C1350.34 122.084 1350.35 120.835 1349.59 120.074C1348.83 119.314 1347.58 119.331 1346.8 120.112Z" fill="#0070F4"/>
<g opacity="0.16" filter="url(#filter5_f_27_286)">
<path d="M1085.75 182.917L1044.89 265.085" stroke="#666666" stroke-width="2"/>
</g>
<path d="M1280.09 204.721C1229.74 248.649 1183.13 255.786 1140.28 226.132M1089.19 186.358C1038.92 293.534 1042.72 339.293 1100.6 323.633L1089.19 186.358Z" stroke="url(#paint1_linear_27_286)" stroke-width="2" stroke-dasharray="2 2"/>
<defs>
<filter id="filter0_d_27_286" x="4" y="156.674" width="72" height="70.728" filterUnits="userSpaceOnUse" color-interpolation-filters="sRGB">
<feFlood flood-opacity="0" result="BackgroundImageFix"/>
<feColorMatrix in="SourceAlpha" type="matrix" values="0 0 0 0 0 0 0 0 0 0 0 0 0 0 0 0 0 0 127 0" result="hardAlpha"/>
<feOffset dy="4"/>
<feGaussianBlur stdDeviation="6"/>
<feColorMatrix type="matrix" values="0 0 0 0 0 0 0 0 0 0.439216 0 0 0 0 0.956863 0 0 0 0.32 0"/>
<feBlend mode="normal" in2="BackgroundImageFix" result="effect1_dropShadow_27_286"/>
<feBlend mode="normal" in="SourceGraphic" in2="effect1_dropShadow_27_286" result="shape"/>
</filter>
<filter id="filter1_d_27_286" x="211" y="249.155" width="48" height="47.364" filterUnits="userSpaceOnUse" color-interpolation-filters="sRGB">
<feFlood flood-opacity="0" result="BackgroundImageFix"/>
<feColorMatrix in="SourceAlpha" type="matrix" values="0 0 0 0 0 0 0 0 0 0 0 0 0 0 0 0 0 0 127 0" result="hardAlpha"/>
<feOffset dy="4"/>
<feGaussianBlur stdDeviation="6"/>
<feColorMatrix type="matrix" values="0 0 0 0 0 0 0 0 0 0.439216 0 0 0 0 0.956863 0 0 0 0.32 0"/>
<feBlend mode="normal" in2="BackgroundImageFix" result="effect1_dropShadow_27_286"/>
<feBlend mode="normal" in="SourceGraphic" in2="effect1_dropShadow_27_286" result="shape"/>
</filter>
<filter id="filter2_f_27_286" x="244.682" y="236.684" width="91.6367" height="35.1001" filterUnits="userSpaceOnUse" color-interpolation-filters="sRGB">
<feFlood flood-opacity="0" result="BackgroundImageFix"/>
<feBlend mode="normal" in="SourceGraphic" in2="BackgroundImageFix" result="shape"/>
<feGaussianBlur stdDeviation="1" result="effect1_foregroundBlur_27_286"/>
</filter>
<filter id="filter3_d_27_286" x="1253.57" y="61.9941" width="71.3682" height="71.3682" filterUnits="userSpaceOnUse" color-interpolation-filters="sRGB">
<feFlood flood-opacity="0" result="BackgroundImageFix"/>
<feColorMatrix in="SourceAlpha" type="matrix" values="0 0 0 0 0 0 0 0 0 0 0 0 0 0 0 0 0 0 127 0" result="hardAlpha"/>
<feOffset dy="4"/>
<feGaussianBlur stdDeviation="6"/>
<feColorMatrix type="matrix" values="0 0 0 0 0 0 0 0 0 0.439216 0 0 0 0 0.956863 0 0 0 0.32 0"/>
<feBlend mode="normal" in2="BackgroundImageFix" result="effect1_dropShadow_27_286"/>
<feBlend mode="normal" in="SourceGraphic" in2="effect1_dropShadow_27_286" result="shape"/>
</filter>
<filter id="filter4_d_27_286" x="1070.4" y="154.588" width="47.6846" height="47.6841" filterUnits="userSpaceOnUse" color-interpolation-filters="sRGB">
<feFlood flood-opacity="0" result="BackgroundImageFix"/>
<feColorMatrix in="SourceAlpha" type="matrix" values="0 0 0 0 0 0 0 0 0 0 0 0 0 0 0 0 0 0 127 0" result="hardAlpha"/>
<feOffset dy="4"/>
<feGaussianBlur stdDeviation="6"/>
<feColorMatrix type="matrix" values="0 0 0 0 0 0 0 0 0 0.439216 0 0 0 0 0.956863 0 0 0 0.32 0"/>
<feBlend mode="normal" in2="BackgroundImageFix" result="effect1_dropShadow_27_286"/>
<feBlend mode="normal" in="SourceGraphic" in2="effect1_dropShadow_27_286" result="shape"/>
</filter>
<filter id="filter5_f_27_286" x="1041.99" y="180.471" width="46.6592" height="87.0593" filterUnits="userSpaceOnUse" color-interpolation-filters="sRGB">
<feFlood flood-opacity="0" result="BackgroundImageFix"/>
<feBlend mode="normal" in="SourceGraphic" in2="BackgroundImageFix" result="shape"/>
<feGaussianBlur stdDeviation="1" result="effect1_foregroundBlur_27_286"/>
</filter>
<linearGradient id="paint0_linear_27_286" x1="242.916" y1="116" x2="242.916" y2="263.969" gradientUnits="userSpaceOnUse">
<stop stop-color="#0070F4" stop-opacity="0"/>
<stop offset="0.52449" stop-color="#0070F4" stop-opacity="0.64"/>
<stop offset="1" stop-color="#0070F4" stop-opacity="0"/>
</linearGradient>
<linearGradient id="paint1_linear_27_286" x1="1196.71" y1="288.1" x2="1092.08" y2="183.47" gradientUnits="userSpaceOnUse">
<stop stop-color="#0070F4" stop-opacity="0"/>
<stop offset="0.52449" stop-color="#0070F4" stop-opacity="0.64"/>
<stop offset="1" stop-color="#0070F4" stop-opacity="0"/>
</linearGradient>
</defs>
</svg>
